<svg id="SvgjsSvg1026" width="288" height="288" xmlns="http://www.w3.org/2000/svg" version="1.1" xmlns:xlink="http://www.w3.org/1999/xlink" xmlns:svgjs="http://svgjs.com/svgjs"><defs id="SvgjsDefs1027"></defs><g id="SvgjsG1028"><svg xmlns="http://www.w3.org/2000/svg" width="288" height="288" fill="none" viewBox="0 0 50 51"><path fill="#ffffff" d="M7.46633 42.5415C7.2457 42.5415 7.03669 42.4602 6.87413 42.286 2.43846 37.6286 0 31.5078 0 25.0618 0 11.2871 11.2169.067627 24.9884.067627 25.4412.067627 25.8012.427674 25.8012.880636 25.8012 1.3336 25.4412 1.69364 24.9884 1.69364 12.111 1.69364 1.62564 12.1698 1.62564 25.0618 1.62564 31.0781 3.91314 36.804 8.05852 41.1594 8.37204 41.4846 8.36043 42.0073 8.02369 42.3092 7.87274 42.4718 7.67534 42.5415 7.46633 42.5415zM24.9886 50.0676C22.5269 50.0676 20.1 49.7076 17.7777 49.0107 17.3481 48.8829 17.1042 48.43 17.2319 47.9886 17.3597 47.5589 17.8125 47.315 18.2538 47.4427 20.4368 48.0932 22.7011 48.43 25.0002 48.43 37.8776 48.43 48.3629 37.9538 48.3629 25.0618 48.3629 21.7168 47.6778 18.4996 46.3193 15.4799 46.1335 15.0734 46.3193 14.5856 46.7257 14.3997 47.1321 14.2139 47.6198 14.3997 47.8056 14.8062 49.257 18.0351 50.0002 21.4845 50.0002 25.0618 49.9886 38.8481 38.7717 50.0676 24.9886 50.0676zM44.5078 11.6007C44.2524 11.6007 44.0085 11.4845 43.846 11.2639 43.6253 10.9735 43.4047 10.6715 43.1725 10.3928 42.8938 10.0443 42.9403 9.53331 43.2886 9.24295 43.637 8.95258 44.1479 9.01066 44.4382 9.35909 44.682 9.66106 44.9259 9.97465 45.1581 10.2999 45.4252 10.6599 45.3439 11.1709 44.9839 11.4381 44.8446 11.5542 44.6704 11.6007 44.5078 11.6007zM40.2347 7.11751C40.0489 7.11751 39.8748 7.05944 39.7238 6.93168 39.4335 6.69939 39.1432 6.4671 38.8529 6.25804 38.493 5.99091 38.4117 5.47988 38.6788 5.11983 38.9458 4.75978 39.4567 4.67848 39.8167 4.94561 40.1302 5.1779 40.4437 5.4218 40.7456 5.66571 41.094 5.95607 41.1521 6.4671 40.8618 6.81553 40.7108 7.01298 40.4786 7.11751 40.2347 7.11751z" class="color000 svgShape"></path><path fill="#ffffff" d="M18.2766 24.3411C16.4187 24.3411 14.5028 23.9113 12.5288 23.0635C12.2966 22.959 12.1224 22.7615 12.0643 22.5176C11.9947 22.2621 10.4619 16.1877 14.5144 10.8219C18.1953 5.93222 25.1856 3.34221 35.2877 3.13315C35.5432 3.13315 35.787 3.23768 35.938 3.43512C36.1006 3.63257 36.1586 3.8997 36.089 4.1436C35.938 4.73594 32.35 18.7545 23.5599 23.0867C21.8762 23.9229 20.1112 24.3411 18.2766 24.3411ZM13.5622 21.7162C16.8832 23.0519 20.0067 23.017 22.8516 21.6117C29.6445 18.2551 33.2093 8.0925 34.2195 4.78239C25.2552 5.14244 19.0778 7.48855 15.8265 11.7743C12.7843 15.7929 13.3184 20.3806 13.5622 21.7162Z" class="color000 svgShape"></path><path fill="#ffffff" d="M12.5408 46.3859C12.1576 46.3859 11.8325 46.4556 11.7396 46.084C9.28949 35.3987 9.67268 26.955 12.8543 20.6832C15.2927 15.8981 18.4976 14.4347 18.6369 14.3766C19.0433 14.1908 19.531 14.3998 19.7168 14.818C19.9026 15.2245 19.7284 15.7355 19.322 15.9213C19.2756 15.9446 16.4075 17.3847 14.2361 21.7169C12.4014 25.3987 10.7526 31.9028 12.6104 42.5183C12.982 41.3917 13.4929 40.0677 14.1896 38.6623C16.0359 34.9573 19.5891 29.9748 26.0568 27.2338C26.4748 27.0595 26.9509 27.257 27.1251 27.6635C27.2992 28.07 27.1019 28.5578 26.6954 28.732C15.1766 33.6101 13.3536 45.8749 13.342 45.991C13.2839 46.3859 12.9588 46.3627 12.5756 46.3627C12.564 46.3859 12.5524 46.3859 12.5408 46.3859Z" class="color000 svgShape"></path><path fill="#ffffff" d="M28.2745 34.5623C25.72 34.5623 23.2351 33.6216 20.8431 31.7516C20.6457 31.589 20.5295 31.3451 20.5295 31.0896C20.5295 30.8806 20.6921 26.0257 24.9188 22.8898C28.9248 19.9165 35.0674 19.5565 43.1956 21.8213C43.4394 21.891 43.6368 22.0652 43.7297 22.2975C43.8226 22.5298 43.811 22.7969 43.6833 23.006C43.4627 23.4009 38.0864 32.8085 30.3763 34.3417C29.668 34.4926 28.9712 34.5623 28.2745 34.5623ZM22.19 30.7296C24.733 32.5995 27.3804 33.2847 30.0627 32.7505C35.7293 31.6239 40.1882 25.4682 41.7093 23.1221C34.6262 21.3103 29.308 21.6703 25.8941 24.2023C22.9448 26.3858 22.3177 29.6146 22.19 30.7296Z" class="color000 svgShape"></path></svg></g></svg>